<?xml version="1.0" standalone="no"?>
<!DOCTYPE svg PUBLIC "-//W3C//DTD SVG 20010904//EN"
 "http://www.w3.org/TR/2001/REC-SVG-20010904/DTD/svg10.dtd">
<svg version="1.0" xmlns="http://www.w3.org/2000/svg"
 width="700.000000pt" height="700.000000pt" viewBox="0 0 700.000000 700.000000"
 preserveAspectRatio="xMidYMid meet">
<metadata>
Created by potrace 1.11, written by Peter Selinger 2001-2013
</metadata>
<g transform="translate(0.000000,700.000000) scale(0.100000,-0.100000)"
fill="#000000" stroke="none">
<path d="M3434 6987 c-51 -21 -94 -57 -116 -100 -22 -42 -22 -48 -23 -579 0
-295 -4 -540 -8 -545 -5 -4 -430 -8 -945 -8 -856 0 -940 -2 -972 -17 -69 -33
-57 -16 -300 -418 -92 -151 -237 -390 -322 -530 -465 -767 -725 -1198 -734
-1220 -14 -32 -14 -108 0 -140 20 -47 59 -91 100 -113 40 -21 50 -21 578 -22
295 0 540 -4 545 -9 4 -4 8 -337 9 -739 0 -788 -1 -764 51 -822 10 -12 182
-153 383 -315 201 -162 372 -300 380 -307 8 -7 80 -65 160 -129 80 -64 163
-131 185 -149 33 -27 413 -333 700 -564 39 -31 72 -58 75 -61 16 -17 213 -171
232 -181 30 -17 124 -20 157 -6 50 22 90 59 113 105 l22 47 1 530 c0 292 3
535 7 540 4 7 325 10 932 10 1006 -1 985 -2 1043 55 18 18 132 197 254 398
122 202 236 390 254 417 29 47 130 213 166 273 9 15 69 115 134 222 65 107
136 224 158 260 21 36 52 85 67 110 16 25 35 56 43 70 7 14 59 100 115 193
119 195 133 235 108 319 -11 39 -26 65 -49 84 -70 59 -54 58 -642 58 l-539 1
-1 740 c-1 787 0 769 -47 826 -7 9 -148 125 -313 258 -165 134 -309 250 -320
259 -11 10 -65 53 -120 96 -55 44 -102 82 -105 85 -3 3 -117 96 -255 206 -137
110 -252 202 -255 205 -3 3 -97 79 -210 169 -113 91 -230 185 -260 211 -30 25
-71 58 -90 72 -19 15 -51 41 -70 58 -75 66 -137 100 -192 105 -30 2 -66 -1
-84 -8z m370 -701 c50 -41 120 -98 156 -127 36 -29 178 -143 315 -253 138
-111 255 -205 261 -211 6 -5 26 -22 45 -37 64 -50 575 -463 609 -491 20 -17
29 -31 23 -35 -6 -4 -28 -21 -49 -38 -22 -18 -282 -226 -579 -464 -297 -237
-550 -440 -563 -451 -12 -10 -24 -19 -25 -19 -2 0 -38 20 -81 44 -42 24 -105
54 -139 67 -34 12 -64 24 -67 26 -6 5 -7 2063 -1 2063 1 0 44 -33 95 -74z
m-514 -945 c4 -1 5 -1021 1 -1043 0 -3 -25 -14 -53 -24 -29 -9 -74 -27 -100
-40 -26 -13 -50 -24 -52 -24 -5 0 -1136 1128 -1136 1133 0 2 1331 1 1340 -2z
m-528 -1490 c-17 -36 -35 -83 -42 -103 -6 -21 -15 -39 -18 -39 -4 -1 -485 -2
-1069 -3 -968 -1 -1060 0 -1053 15 5 9 53 87 106 175 53 87 108 179 123 203
14 24 51 85 82 135 31 50 174 287 319 526 144 239 267 440 272 446 6 8 216
-195 659 -638 l651 -651 -30 -66z m2583 359 c1 -275 -2 -501 -5 -501 -14 -4
-1027 -5 -1037 -1 -10 3 -46 98 -48 125 0 7 1073 874 1085 876 3 1 5 -224 5
-499z m-1730 -318 c164 -51 282 -201 290 -367 14 -297 -261 -504 -542 -409
-183 62 -299 260 -264 452 11 62 48 149 74 178 7 6 19 20 28 30 46 54 145 111
219 124 46 9 157 4 195 -8z m-889 -662 c23 -61 24 -65 7 -81 -22 -20 -1072
-859 -1076 -859 -1 0 -2 225 -2 500 -1 494 0 499 20 502 11 2 247 3 524 3
l503 -1 24 -64z m3694 56 c0 -4 -109 -188 -242 -407 -134 -220 -250 -412 -259
-427 -28 -47 -359 -593 -385 -633 l-24 -39 -651 651 -651 650 34 77 c20 42 38
89 42 104 4 17 14 28 29 30 53 7 2107 2 2107 -6z m-3325 -496 c44 -25 82 -45
85 -45 8 -1 104 -38 110 -43 6 -5 7 -2062 1 -2062 -3 0 -36 26 -75 58 -39 32
-152 123 -251 202 -99 80 -182 147 -185 150 -3 3 -84 68 -180 145 -96 76 -177
142 -180 145 -3 3 -95 77 -205 166 -110 88 -229 184 -265 213 -36 30 -89 72
-117 95 l-53 41 23 22 c42 41 1200 964 1206 961 3 -2 42 -23 86 -48z m1372
-548 c301 -302 556 -558 565 -568 17 -19 7 -19 -650 -18 -367 1 -669 2 -672 3
-4 1 -5 1021 -1 1043 0 3 29 16 64 28 34 11 78 29 97 40 19 11 38 19 42 20 4
0 253 -247 555 -548z"/>
</g>
</svg>
